<svg width="1280" height="720" viewBox="0 0 1280 720" fill="none" xmlns="http://www.w3.org/2000/svg">
<rect width="1280" height="720" fill="url(#paint0_linear)"/>
<rect x="296" y="292" width="687" height="136" rx="16" fill="#323232"/>
<path d="M351.224 385H338.919V333.812H351.224V385ZM371.29 346.961L371.676 351.426C374.301 347.98 377.923 346.258 382.54 346.258C386.501 346.258 389.454 347.441 391.399 349.809C393.368 352.176 394.387 355.738 394.458 360.496V385H382.575V360.988C382.575 359.066 382.188 357.66 381.415 356.77C380.641 355.855 379.235 355.398 377.196 355.398C374.876 355.398 373.153 356.312 372.028 358.141V385H360.18V346.961H371.29ZM422.118 374.312C422.118 373.305 421.59 372.496 420.535 371.887C419.481 371.277 417.477 370.645 414.524 369.988C411.571 369.332 409.133 368.477 407.211 367.422C405.289 366.344 403.825 365.043 402.817 363.52C401.809 361.996 401.305 360.25 401.305 358.281C401.305 354.789 402.746 351.918 405.629 349.668C408.512 347.395 412.285 346.258 416.95 346.258C421.965 346.258 425.996 347.395 429.043 349.668C432.09 351.941 433.614 354.93 433.614 358.633H421.731C421.731 355.586 420.125 354.062 416.914 354.062C415.672 354.062 414.629 354.414 413.785 355.117C412.942 355.797 412.52 356.652 412.52 357.684C412.52 358.738 413.035 359.594 414.067 360.25C415.098 360.906 416.739 361.445 418.989 361.867C421.262 362.289 423.254 362.793 424.965 363.379C430.684 365.348 433.543 368.875 433.543 373.961C433.543 377.43 431.996 380.254 428.903 382.434C425.832 384.613 421.848 385.703 416.95 385.703C413.692 385.703 410.785 385.117 408.231 383.945C405.676 382.773 403.684 381.18 402.254 379.164C400.825 377.148 400.11 375.027 400.11 372.801H411.184C411.231 374.559 411.817 375.848 412.942 376.668C414.067 377.465 415.508 377.863 417.266 377.863C418.883 377.863 420.09 377.535 420.887 376.879C421.707 376.223 422.118 375.367 422.118 374.312ZM454.066 337.504V346.961H460.324V355.188H454.066V372.59C454.066 374.02 454.324 375.016 454.84 375.578C455.355 376.141 456.375 376.422 457.898 376.422C459.07 376.422 460.055 376.352 460.852 376.211V384.684C458.719 385.363 456.492 385.703 454.172 385.703C450.094 385.703 447.082 384.742 445.137 382.82C443.191 380.898 442.219 377.98 442.219 374.066V355.188H437.367V346.961H442.219V337.504H454.066ZM487.597 385C487.175 384.227 486.8 383.09 486.472 381.59C484.293 384.332 481.246 385.703 477.332 385.703C473.746 385.703 470.699 384.625 468.191 382.469C465.683 380.289 464.429 377.559 464.429 374.277C464.429 370.152 465.953 367.035 469 364.926C472.047 362.816 476.476 361.762 482.289 361.762H485.945V359.758C485.945 356.266 484.433 354.52 481.41 354.52C478.597 354.52 477.191 355.902 477.191 358.668H465.343C465.343 354.988 466.902 352 470.019 349.703C473.16 347.406 477.156 346.258 482.007 346.258C486.859 346.258 490.691 347.441 493.504 349.809C496.316 352.176 497.757 355.422 497.828 359.547V376.387C497.875 379.879 498.414 382.551 499.445 384.402V385H487.597ZM480.179 377.266C481.656 377.266 482.875 376.949 483.836 376.316C484.82 375.684 485.523 374.969 485.945 374.172V368.09H482.5C478.375 368.09 476.312 369.941 476.312 373.645C476.312 374.723 476.675 375.602 477.402 376.281C478.129 376.938 479.054 377.266 480.179 377.266ZM516.452 346.961L516.839 351.426C519.464 347.98 523.085 346.258 527.702 346.258C531.663 346.258 534.616 347.441 536.562 349.809C538.531 352.176 539.55 355.738 539.62 360.496V385H527.738V360.988C527.738 359.066 527.351 357.66 526.577 356.77C525.804 355.855 524.398 355.398 522.359 355.398C520.038 355.398 518.316 356.312 517.191 358.141V385H505.343V346.961H516.452ZM561.163 337.504V346.961H567.421V355.188H561.163V372.59C561.163 374.02 561.421 375.016 561.936 375.578C562.452 376.141 563.472 376.422 564.995 376.422C566.167 376.422 567.151 376.352 567.948 376.211V384.684C565.815 385.363 563.589 385.703 561.268 385.703C557.19 385.703 554.179 384.742 552.233 382.82C550.288 380.898 549.315 377.98 549.315 374.066V355.188H544.464V346.961H549.315V337.504H561.163Z" fill="#FAFAFA"/>
<path d="M603 361.95L615.371 335L636.429 385L646.299 360.621H676.832L691.573 335L710.393 385L720 360.621" stroke="#E5E5E5" stroke-width="10"/>
<path d="M777.765 371.078L787.96 333.812H801.741L784.515 385H771.015L753.929 333.812H767.604L777.765 371.078ZM818.608 385H806.725V346.961H818.608V385ZM806.022 337.152C806.022 335.465 806.631 334.082 807.85 333.004C809.069 331.926 810.651 331.387 812.596 331.387C814.542 331.387 816.124 331.926 817.342 333.004C818.561 334.082 819.17 335.465 819.17 337.152C819.17 338.84 818.561 340.223 817.342 341.301C816.124 342.379 814.542 342.918 812.596 342.918C810.651 342.918 809.069 342.379 807.85 341.301C806.631 340.223 806.022 338.84 806.022 337.152ZM840.889 337.504V346.961H847.147V355.188H840.889V372.59C840.889 374.02 841.147 375.016 841.662 375.578C842.178 376.141 843.197 376.422 844.721 376.422C845.893 376.422 846.877 376.352 847.674 376.211V384.684C845.541 385.363 843.315 385.703 840.994 385.703C836.916 385.703 833.904 384.742 831.959 382.82C830.014 380.898 829.041 377.98 829.041 374.066V355.188H824.19V346.961H829.041V337.504H840.889ZM874.42 385C873.998 384.227 873.623 383.09 873.295 381.59C871.115 384.332 868.068 385.703 864.154 385.703C860.568 385.703 857.521 384.625 855.014 382.469C852.506 380.289 851.252 377.559 851.252 374.277C851.252 370.152 852.775 367.035 855.822 364.926C858.869 362.816 863.299 361.762 869.111 361.762H872.767V359.758C872.767 356.266 871.256 354.52 868.232 354.52C865.42 354.52 864.014 355.902 864.014 358.668H852.166C852.166 354.988 853.724 352 856.842 349.703C859.982 347.406 863.978 346.258 868.83 346.258C873.681 346.258 877.514 347.441 880.326 349.809C883.139 352.176 884.58 355.422 884.65 359.547V376.387C884.697 379.879 885.236 382.551 886.267 384.402V385H874.42ZM867.002 377.266C868.478 377.266 869.697 376.949 870.658 376.316C871.642 375.684 872.346 374.969 872.767 374.172V368.09H869.322C865.197 368.09 863.135 369.941 863.135 373.645C863.135 374.723 863.498 375.602 864.224 376.281C864.951 376.938 865.877 377.266 867.002 377.266ZM904.892 385H893.009V331H904.892V385ZM933.29 374.312C933.29 373.305 932.763 372.496 931.708 371.887C930.653 371.277 928.65 370.645 925.696 369.988C922.743 369.332 920.306 368.477 918.384 367.422C916.462 366.344 914.997 365.043 913.989 363.52C912.982 361.996 912.478 360.25 912.478 358.281C912.478 354.789 913.919 351.918 916.802 349.668C919.685 347.395 923.458 346.258 928.122 346.258C933.138 346.258 937.169 347.395 940.216 349.668C943.263 351.941 944.786 354.93 944.786 358.633H932.903C932.903 355.586 931.298 354.062 928.087 354.062C926.845 354.062 925.802 354.414 924.958 355.117C924.114 355.797 923.693 356.652 923.693 357.684C923.693 358.738 924.208 359.594 925.239 360.25C926.271 360.906 927.911 361.445 930.161 361.867C932.435 362.289 934.427 362.793 936.138 363.379C941.857 365.348 944.716 368.875 944.716 373.961C944.716 377.43 943.169 380.254 940.075 382.434C937.005 384.613 933.021 385.703 928.122 385.703C924.864 385.703 921.958 385.117 919.403 383.945C916.849 382.773 914.857 381.18 913.427 379.164C911.997 377.148 911.282 375.027 911.282 372.801H922.357C922.403 374.559 922.989 375.848 924.114 376.668C925.239 377.465 926.681 377.863 928.439 377.863C930.056 377.863 931.263 377.535 932.06 376.879C932.88 376.223 933.29 375.367 933.29 374.312Z" fill="#FAFAFA"/>
<path d="M48.5202 38.4913C48.4609 38.3662 48.3684 38.2607 48.2533 38.1868C48.1382 38.113 48.0051 38.0739 47.8692 38.0739H40.3324L46.353 25.0575C46.4053 24.9447 46.4289 24.8201 46.4215 24.6954C46.4141 24.5706 46.3759 24.4499 46.3107 24.3443C46.2454 24.2388 46.1552 24.1518 46.0483 24.0916C45.9414 24.0314 45.8213 23.9999 45.6993 24H34.1264C33.9869 24 33.8503 24.0413 33.7332 24.1189C33.6161 24.1966 33.5234 24.3073 33.4663 24.4376L24.0633 45.9189C24.0139 46.0317 23.9929 46.1554 24.0021 46.2786C24.0114 46.4019 24.0506 46.5209 24.1162 46.6246C24.1818 46.7284 24.2718 46.8137 24.3778 46.8728C24.4839 46.9318 24.6027 46.9627 24.7234 46.9627H31.7823L28.3565 63.1012C28.3216 63.2649 28.3419 63.436 28.4142 63.5863C28.4865 63.7367 28.6064 63.8576 28.7544 63.9291C28.9024 64.0007 29.0698 64.0187 29.2291 63.9802C29.3884 63.9418 29.5303 63.8491 29.6315 63.7174L48.4375 39.2733C48.5215 39.164 48.5737 39.0327 48.5884 38.8944C48.603 38.7562 48.5794 38.6165 48.5202 38.4913Z" fill="white"/>
<defs>
<linearGradient id="paint0_linear" x1="640" y1="0" x2="640" y2="720" gradientUnits="userSpaceOnUse">
<stop stop-color="#69D682"/>
<stop offset="0.5" stop-color="#50A464"/>
<stop offset="1" stop-color="#397E49"/>
</linearGradient>
</defs>
</svg>
