<svg width="1280" height="640" viewBox="0 0 1280 640" fill="none" xmlns="http://www.w3.org/2000/svg">
<rect width="1280" height="640" fill="url(#paint0_linear)"/>
<rect x="296" y="252" width="687" height="136" rx="16" fill="#323232"/>
<path d="M351.224 345H338.919V293.812H351.224V345ZM371.29 306.961L371.676 311.426C374.301 307.98 377.923 306.258 382.54 306.258C386.501 306.258 389.454 307.441 391.399 309.809C393.368 312.176 394.387 315.738 394.458 320.496V345H382.575V320.988C382.575 319.066 382.188 317.66 381.415 316.77C380.641 315.855 379.235 315.398 377.196 315.398C374.876 315.398 373.153 316.312 372.028 318.141V345H360.18V306.961H371.29ZM422.118 334.312C422.118 333.305 421.59 332.496 420.535 331.887C419.481 331.277 417.477 330.645 414.524 329.988C411.571 329.332 409.133 328.477 407.211 327.422C405.289 326.344 403.825 325.043 402.817 323.52C401.809 321.996 401.305 320.25 401.305 318.281C401.305 314.789 402.746 311.918 405.629 309.668C408.512 307.395 412.285 306.258 416.95 306.258C421.965 306.258 425.996 307.395 429.043 309.668C432.09 311.941 433.614 314.93 433.614 318.633H421.731C421.731 315.586 420.125 314.062 416.914 314.062C415.672 314.062 414.629 314.414 413.785 315.117C412.942 315.797 412.52 316.652 412.52 317.684C412.52 318.738 413.035 319.594 414.067 320.25C415.098 320.906 416.739 321.445 418.989 321.867C421.262 322.289 423.254 322.793 424.965 323.379C430.684 325.348 433.543 328.875 433.543 333.961C433.543 337.43 431.996 340.254 428.903 342.434C425.832 344.613 421.848 345.703 416.95 345.703C413.692 345.703 410.785 345.117 408.231 343.945C405.676 342.773 403.684 341.18 402.254 339.164C400.825 337.148 400.11 335.027 400.11 332.801H411.184C411.231 334.559 411.817 335.848 412.942 336.668C414.067 337.465 415.508 337.863 417.266 337.863C418.883 337.863 420.09 337.535 420.887 336.879C421.707 336.223 422.118 335.367 422.118 334.312ZM454.066 297.504V306.961H460.324V315.188H454.066V332.59C454.066 334.02 454.324 335.016 454.84 335.578C455.355 336.141 456.375 336.422 457.898 336.422C459.07 336.422 460.055 336.352 460.852 336.211V344.684C458.719 345.363 456.492 345.703 454.172 345.703C450.094 345.703 447.082 344.742 445.137 342.82C443.191 340.898 442.219 337.98 442.219 334.066V315.188H437.367V306.961H442.219V297.504H454.066ZM487.597 345C487.175 344.227 486.8 343.09 486.472 341.59C484.293 344.332 481.246 345.703 477.332 345.703C473.746 345.703 470.699 344.625 468.191 342.469C465.683 340.289 464.429 337.559 464.429 334.277C464.429 330.152 465.953 327.035 469 324.926C472.047 322.816 476.476 321.762 482.289 321.762H485.945V319.758C485.945 316.266 484.433 314.52 481.41 314.52C478.597 314.52 477.191 315.902 477.191 318.668H465.343C465.343 314.988 466.902 312 470.019 309.703C473.16 307.406 477.156 306.258 482.007 306.258C486.859 306.258 490.691 307.441 493.504 309.809C496.316 312.176 497.757 315.422 497.828 319.547V336.387C497.875 339.879 498.414 342.551 499.445 344.402V345H487.597ZM480.179 337.266C481.656 337.266 482.875 336.949 483.836 336.316C484.82 335.684 485.523 334.969 485.945 334.172V328.09H482.5C478.375 328.09 476.312 329.941 476.312 333.645C476.312 334.723 476.675 335.602 477.402 336.281C478.129 336.938 479.054 337.266 480.179 337.266ZM516.452 306.961L516.839 311.426C519.464 307.98 523.085 306.258 527.702 306.258C531.663 306.258 534.616 307.441 536.562 309.809C538.531 312.176 539.55 315.738 539.62 320.496V345H527.738V320.988C527.738 319.066 527.351 317.66 526.577 316.77C525.804 315.855 524.398 315.398 522.359 315.398C520.038 315.398 518.316 316.312 517.191 318.141V345H505.343V306.961H516.452ZM561.163 297.504V306.961H567.421V315.188H561.163V332.59C561.163 334.02 561.421 335.016 561.936 335.578C562.452 336.141 563.472 336.422 564.995 336.422C566.167 336.422 567.151 336.352 567.948 336.211V344.684C565.815 345.363 563.589 345.703 561.268 345.703C557.19 345.703 554.179 344.742 552.233 342.82C550.288 340.898 549.315 337.98 549.315 334.066V315.188H544.464V306.961H549.315V297.504H561.163Z" fill="#FAFAFA"/>
<path d="M603 321.95L615.371 295L636.429 345L646.299 320.621H676.832L691.573 295L710.393 345L720 320.621" stroke="#E5E5E5" stroke-width="10"/>
<path d="M777.765 331.078L787.96 293.812H801.741L784.515 345H771.015L753.929 293.812H767.604L777.765 331.078ZM818.608 345H806.725V306.961H818.608V345ZM806.022 297.152C806.022 295.465 806.631 294.082 807.85 293.004C809.069 291.926 810.651 291.387 812.596 291.387C814.542 291.387 816.124 291.926 817.342 293.004C818.561 294.082 819.17 295.465 819.17 297.152C819.17 298.84 818.561 300.223 817.342 301.301C816.124 302.379 814.542 302.918 812.596 302.918C810.651 302.918 809.069 302.379 807.85 301.301C806.631 300.223 806.022 298.84 806.022 297.152ZM840.889 297.504V306.961H847.147V315.188H840.889V332.59C840.889 334.02 841.147 335.016 841.662 335.578C842.178 336.141 843.197 336.422 844.721 336.422C845.893 336.422 846.877 336.352 847.674 336.211V344.684C845.541 345.363 843.315 345.703 840.994 345.703C836.916 345.703 833.904 344.742 831.959 342.82C830.014 340.898 829.041 337.98 829.041 334.066V315.188H824.19V306.961H829.041V297.504H840.889ZM874.42 345C873.998 344.227 873.623 343.09 873.295 341.59C871.115 344.332 868.068 345.703 864.154 345.703C860.568 345.703 857.521 344.625 855.014 342.469C852.506 340.289 851.252 337.559 851.252 334.277C851.252 330.152 852.775 327.035 855.822 324.926C858.869 322.816 863.299 321.762 869.111 321.762H872.767V319.758C872.767 316.266 871.256 314.52 868.232 314.52C865.42 314.52 864.014 315.902 864.014 318.668H852.166C852.166 314.988 853.724 312 856.842 309.703C859.982 307.406 863.978 306.258 868.83 306.258C873.681 306.258 877.514 307.441 880.326 309.809C883.139 312.176 884.58 315.422 884.65 319.547V336.387C884.697 339.879 885.236 342.551 886.267 344.402V345H874.42ZM867.002 337.266C868.478 337.266 869.697 336.949 870.658 336.316C871.642 335.684 872.346 334.969 872.767 334.172V328.09H869.322C865.197 328.09 863.135 329.941 863.135 333.645C863.135 334.723 863.498 335.602 864.224 336.281C864.951 336.938 865.877 337.266 867.002 337.266ZM904.892 345H893.009V291H904.892V345ZM933.29 334.312C933.29 333.305 932.763 332.496 931.708 331.887C930.653 331.277 928.65 330.645 925.696 329.988C922.743 329.332 920.306 328.477 918.384 327.422C916.462 326.344 914.997 325.043 913.989 323.52C912.982 321.996 912.478 320.25 912.478 318.281C912.478 314.789 913.919 311.918 916.802 309.668C919.685 307.395 923.458 306.258 928.122 306.258C933.138 306.258 937.169 307.395 940.216 309.668C943.263 311.941 944.786 314.93 944.786 318.633H932.903C932.903 315.586 931.298 314.062 928.087 314.062C926.845 314.062 925.802 314.414 924.958 315.117C924.114 315.797 923.693 316.652 923.693 317.684C923.693 318.738 924.208 319.594 925.239 320.25C926.271 320.906 927.911 321.445 930.161 321.867C932.435 322.289 934.427 322.793 936.138 323.379C941.857 325.348 944.716 328.875 944.716 333.961C944.716 337.43 943.169 340.254 940.075 342.434C937.005 344.613 933.021 345.703 928.122 345.703C924.864 345.703 921.958 345.117 919.403 343.945C916.849 342.773 914.857 341.18 913.427 339.164C911.997 337.148 911.282 335.027 911.282 332.801H922.357C922.403 334.559 922.989 335.848 924.114 336.668C925.239 337.465 926.681 337.863 928.439 337.863C930.056 337.863 931.263 337.535 932.06 336.879C932.88 336.223 933.29 335.367 933.29 334.312Z" fill="#FAFAFA"/>
<path d="M48.5202 38.4913C48.4609 38.3662 48.3684 38.2607 48.2533 38.1868C48.1382 38.113 48.0051 38.0739 47.8692 38.0739H40.3324L46.353 25.0575C46.4053 24.9447 46.4289 24.8201 46.4215 24.6954C46.4141 24.5706 46.3759 24.4499 46.3107 24.3443C46.2454 24.2388 46.1552 24.1518 46.0483 24.0916C45.9414 24.0314 45.8213 23.9999 45.6993 24H34.1264C33.9869 24 33.8503 24.0413 33.7332 24.1189C33.6161 24.1966 33.5234 24.3073 33.4663 24.4376L24.0633 45.9189C24.0139 46.0317 23.9929 46.1554 24.0021 46.2786C24.0114 46.4019 24.0506 46.5209 24.1162 46.6246C24.1818 46.7284 24.2718 46.8137 24.3778 46.8728C24.4839 46.9318 24.6027 46.9627 24.7234 46.9627H31.7823L28.3565 63.1012C28.3216 63.2649 28.3419 63.436 28.4142 63.5863C28.4865 63.7367 28.6064 63.8576 28.7544 63.9291C28.9024 64.0007 29.0698 64.0187 29.2291 63.9802C29.3884 63.9418 29.5303 63.8491 29.6315 63.7174L48.4375 39.2733C48.5215 39.164 48.5737 39.0327 48.5884 38.8944C48.603 38.7562 48.5794 38.6165 48.5202 38.4913Z" fill="white"/>
<defs>
<linearGradient id="paint0_linear" x1="640" y1="0" x2="640" y2="640" gradientUnits="userSpaceOnUse">
<stop stop-color="#69D682"/>
<stop offset="0.5" stop-color="#50A464"/>
<stop offset="1" stop-color="#397E49"/>
</linearGradient>
</defs>
</svg>
